# xmcd
#
# Track frame offsets: 
#        150
#        23407
#        41887
#        63366
#        90985
#        118635
#        137587
#        161969
#        189341
#        210393
#        233863
#        258785
#        280729
#        309339
#
# Disc length: 4418 seconds
#
# Revision: 3
# Processed by: cddbd v1.5.2PL0 Copyright (c) Steve Scherf et al.
# Submitted via: ExactAudioCopy v0.99pb4
#
DISCID=b211400e
DTITLE=Various Artist - Jazz Instumental
DYEAR=1998
DGENRE=Jazz
TTITLE0=Spyre Gyra - The Unwritten Letter
TTITLE1=Urban Knight - Scirrocco
TTITLE2=Joe McBride - Highland Park
TTITLE3=Zachary Breaux - I Told You
TTITLE4=Pieces Of A Dream - The Very First Time
TTITLE5=Jonathan Buttler - Song For Elizabeth
TTITLE6=Hiroko Kokubu - Catalina Island
TTITLE7=Ray Obiedo - What In The World
TTITLE8=Bob James - Love Is Where
TTITLE9=Gato Barbieri - The Woman I Remember
TTITLE10=Fourplay - 4 Play And Pleasure
TTITLE11=Joe Sample - Snow Flake
TTITLE12=Earl Klugh - Evil Eye
TTITLE13=Dave Grusin - Whistling Away The Dark
EXTD=
EXTT0=
EXTT1=
EXTT2=
EXTT3=
EXTT4=
EXTT5=
EXTT6=
EXTT7=
EXTT8=
EXTT9=
EXTT10=
EXTT11=
EXTT12=
EXTT13=
PLAYORDER=
